<?xml version="1.0" encoding="utf-8"?>
<!-- Generator: Adobe Illustrator 21.1.0, SVG Export Plug-In . SVG Version: 6.00 Build 0)  -->
<svg version="1.0" id="Warstwa_1" xmlns="http://www.w3.org/2000/svg" xmlns:xlink="http://www.w3.org/1999/xlink" x="0px" y="0px"
	 viewBox="0 0 792 792" enable-background="new 0 0 792 792" xml:space="preserve">
<g>
	<path d="M701.2,339c-3.8,30.5-14.4,215.9-194.9,358c-31.6,24.9-57.9,42.9-97.3,57.6c-0.4,0.1-5.8,1.4-8,1.4
		c-5.4-0.1-13.3-4.8-18.2-7c-93.9-41.2-165.1-107.6-216.7-195.6c-35.3-60.2-58.2-125.1-72-193.4c-7.5-37.2-12.3-81.9-13.4-112.8
		c-0.6-15.7-0.7-47,0-62.7c0.1-2.2,0.5-5.9,5.7-6.8c12.2-2.1,24.7-2.5,37-4.7c15.3-2.7,27.8-9.4,34.6-24.1c4.7-10,6.6-20.8,6.9-31.8
		c0.1-6.6,0.4-13.1,1.4-19.7c0.7-4.3,2.7-7.4,6.3-9.9c22.4-15.5,47-26.1,73-34c28.5-8.6,57.7-13.3,87.3-16.1
		c10.3-1,20.6-0.8,30.9-1.2c1.6-0.1,3.3,0.5,4.8-0.4c1.8,0,3.6,0,5.4,0c2.1,0,4.2,0,6.3,0c4.5,0,9,0,13.5,0c2.4,0,4.8,0,7.2,0
		c1.5,0,3,0,4.5,0c5.1,1.2,10.4,0.7,15.6,0.7c30.1,0.3,59.7,4.4,89.2,9.7c30.3,5.4,60,13.1,88.3,25.6c8.9,3.9,17.4,8.8,25.1,14.8
		c3.9,3,6.1,6.4,6.4,11.7c0.4,8.8,1.7,17.6,3.6,26.2c5.3,24.7,20,39.1,44.8,43.7c8.4,1.5,16.8,3,25.2,4.4c4.2,0.7,7.7,4,8.2,8.4
		C712.8,191.8,705.9,300.7,701.2,339z"/>
	<path fill="#A6A6A6" d="M697.9,184.3c-7-1-13.9-2.3-20.8-3.5c-29-5.1-47.6-21.5-54.9-50.4c-2.2-8.6-3.8-17.3-4.1-26.1
		c-0.2-5.4-2.5-8.4-6.6-11.1c-14.8-9.7-31.1-16-47.9-21.1c-55.2-16.9-111.9-23.2-161.6-24.2c-52.4-0.4-90,3-128.7,11.6
		c-31.8,7-62.1,17.8-89.6,35.6c-4.2,2.7-5.9,5.9-5.9,10.6c0,10.2-0.7,20.3-2.6,30.4c-5.5,28.5-21.3,44.2-49.7,49.4
		c-9.6,1.8-19.3,2.6-29,3.5c-2.9,0.3-4.2,1-4.1,4.2c0.1,5.7-0.5,11.4-0.6,17.1c-1.1,52.5,4.2,104.4,15.2,155.8
		c14.9,69.6,39.6,135.4,77.5,195.9c51.7,82.3,121.6,143.4,211.8,180.7c2.6,1.1,5,1.5,7.7,0.4c6.1-2.4,12.4-4.4,18.5-6.9
		c36.5-15.1,66.8-39.1,96.3-65C651.5,554.8,680.8,435,694.5,299.4c3.7-37,5.8-74.1,6.5-111.3C701,185.7,700.4,184.7,697.9,184.3z
		 M669,218.1c-3.9,58.6-10.4,127.6-29.8,195.8c-19.9,69.7-50.1,127-92.4,175c-37.9,43-84.5,77.7-142.4,105.8
		c-1.1,0.5-2.1,0.8-3.1,0.8c-1.6,0-3-0.6-4.2-1.2c-44.7-20.2-84.7-46.7-119.1-78.7c-34-31.7-63.3-69.7-87.2-113.1
		c-23.5-42.6-39.7-89.7-49.7-144.1c-8.8-48.3-12.5-89-11.6-128.2c0-1.5,1.1-14.9,2.4-16.2c1.1-1.1,2.7-1.4,4.3-1.8
		c49.7-10.8,61.7-37.3,64.3-50c2.8-13.2,5.2-26.5,7.1-39.7c0.6-4.2,2.5-6.4,6.5-7.8c43.3-15,83-23.9,121.5-27.2
		c10.6-0.9,21.8-1.4,34.1-1.4c15.4,0,30.8,0.7,42.5,1.4c39.5,2.2,74.4,5.9,106.5,11.4l4,0.7c23.2,4,49.6,8.5,64.7,17.1
		c0.3,0.2,0.6,0.3,0.9,0.5c3.4,1.8,8.2,4.3,9,17.6l0.1,1.3c0.6,9.5,1,16.3,6.8,28.4c4.7,9.8,12.5,17.7,23.1,23.6
		c11,6,22.7,12.3,36,19.1C667.7,209.6,669.3,212.7,669,218.1z"/>
	<path fill="#16700F" d="M657.9,213.1c-11.1-5.7-77.4-13.7-68.9-78.8c0.9-7.1-3.6-9.6-10.2-12.2c-21.6-8.5-224.2-52.3-360.3-0.7
		c-2.4,0.9-3.3,1.9-3.7,4.5c-1.8,12-3.9,24.1-6.4,36.3c-11.1,53.6-69.7,58.5-69.8,58.5c-3.9,98.2,28.6,213.7,44.6,247.5
		c46.6,98.7,113.9,168.3,205.8,212.8c1.7,0.8,9.3,5.1,12,5.1c2.6,0,6-1.2,10.6-3.6c69.7-37.9,129.9-91.2,165.2-146.1
		c32-49.8,73.9-169.8,84.5-317.1C661.5,215.9,660.7,214.5,657.9,213.1z M262.9,243.7c0,0,25.7-45.7,35.9-62.4
		c7.2-11.8,27.7-33.4,100.8-35.4c4.6-0.1,52.2,1.6,69.6,5.7c14.3,3.3,23,9.9,29.7,20.5c8.6,13.6,24.6,37.8,24.8,38.1
		c0.3-0.2,14.1-9,16-10.3c3.3-2.2,6.5-3.3,9.6-3.3c3.3,0,6.3,1.2,9,3.6c5.4,4.8,6.2,11.6,2.2,18.6c-14.8,26-29.6,52-44.4,77.9
		c-2.1,3.6-6.3,8-14.9,8c-29.2-0.3-58.1-0.6-87-0.8c-10-0.1-13.1-6.1-14.1-9.7c-1.9-6.8,0.6-13,6.8-16.6c1.4-0.8,16.4-9.2,16.7-9.4
		c-0.2-0.4-13.6-19.7-14.9-21.6c-1.4-2-4.1-6-2.1-11.2c-1.6,2.9-3.2,5.8-4.8,8.7c-3.4,6.2-30.6,53.8-34,59.7
		c-2.3,3.9-6.1,9.1-12.9,9.1c-2.9,0-6-1-9.7-3.1c-25.3-14.5-50.6-29-75.8-43.6C259.6,260.6,257.5,253.2,262.9,243.7z M387.7,523.4
		c-2.7,2.7-6.6,4.1-11.4,4.1c-0.4,0-0.9,0-1.3,0c-9.5-0.5-60.8-3-76.9-3.8c-9.1-0.4-17.5-3.9-25.7-10.6c-3-2.4-6-5.1-8.4-8.5
		c-3.2-4.5-6.5-9.1-9.7-13.6c-15.9-22.2-32.4-45.1-45.2-70.1c-14.3-27.8-13-57.5,3.7-88.2c1-1.8,6.7-9.7,6.7-10.7
		c-0.4-0.7-15.1-8.2-16-8.8c-5-3.4-7.1-8.9-5.8-15.1c1.4-6.3,6.2-10.2,13-10.4c3.9-0.1,83.1-1.2,83.1-1.2c8.5,0,14.5,3.5,18.8,11
		c10.6,18.4,40.4,69,40.4,69c2.3,3.9,7.2,12.1-0.2,19.7c-2.8,3-6.1,4.4-9.8,4.4c-4,0-18.2-7.8-19.6-8.1
		c-1.1,0.9-13.7,20.2-13.7,20.2s58.2,1.5,66.5,1.6c8.8,0.2,14.1,5.6,14.3,14.6c0,0,1,71.1,1.2,93.5
		C391.7,517,390.4,520.7,387.7,523.4z M604.2,370.7c-12.7,36.3-54.9,108.8-62.8,122.5c-11.8,20.5-30.7,31.7-56.7,33.3
		c-4.1,0.2-8.3,0.4-12.9,0.4c-2.3,0-4.6,0-6.9-0.1c0.1,1.8,0.3,9.1,0.3,9.1c0.3,5.4,0.7,15.4-10.3,18.4c-1.3,0.4-2.6,0.5-3.9,0.5
		c-7.8,0-11.4-6.3-13.8-10.5c0,0-37.2-64-38.9-66.7c-7.5-12.2-7.6-14.5-0.1-26.9c1.6-2.7,29.7-52.2,42.8-74.9
		c3.2-5.5,8.2-8.7,13.6-8.7c4.9,0,9.2,2.7,11.7,7.3c2.2,4.1,1.7,27.6,1.7,27.7c0,0,29.7,1.1,32.1,1c-0.4-0.6-0.9-1.2-1.3-1.8
		c-6.3-10.3-25.8-41.3-32.8-52.6c-3-4.7-3.9-8.9-2.9-12.8c1.3-5.2,5.7-8.1,8.9-9.9c26.4-14.6,52.8-29.1,79.3-43.6
		c3.8-2.1,7-3.1,9.9-3.1c8.1,0,11.8,7.6,13.4,10.8c2.9,5.9,5.7,11.9,8.6,17.9c6.5,13.6,13.2,27.6,20.1,41.2
		C606.7,356.2,606.9,363.1,604.2,370.7z"/>
	<path fill="#46DD3E" d="M269.4,247.3c2.2-3.9,4.4-7.9,6.6-11.8c9.3-16.6,19-33.8,29.1-50.3c6.1-10,16.6-15.2,27.8-20.1
		c26.6-11.7,54.9-12.4,81.4-11.4c13.3,0.5,36.4,1.3,53.1,5.2c12.3,2.9,19.3,8.2,24.9,17c6.9,11,20.7,31.6,24.1,37
		c1.8,3,3.7,4.6,5.7,5c2.7,0.5,5.3-1,7.2-2.4c2.7-1.9,12.4-7.9,14.4-9.2c4-2.6,6.8-2.7,9.4-0.3c1.7,1.5,3.7,4.2,0.7,9.3
		c-14.8,26-29.6,52-44.4,77.9c-1.7,2.9-4.3,4.3-8.5,4.2c-28.9-0.3-57.8-0.6-86.8-0.8c-4.1,0-6.2-1.3-7-4.2c-1-3.6,0.1-6.2,3.4-8.1
		c1.4-0.8,20.2-11.7,20.7-13.9c0.7-2.9-15.2-25.8-16.5-27.8c-1.5-2.2-1.8-3.1-1.1-4.9c4.4-11.4,18.8-37.7,29.8-48.4
		c13-12.6,30.4-16.6,30.5-16.7l5.1-1.5c0,0-9.5-4.8-21.8-1.7c-17.5,4.4-23.6,13.6-34.1,25.8c-13.5,15.7-58.8,99.2-62.2,105
		c-3.5,6.1-6.3,6.8-12.4,3.3c-23.5-13.4-48.3-27.7-75.8-43.6C266.9,256.2,266.1,253.3,269.4,247.3z M384.2,512.5
		c-0.2-22.4-1.1-84.7-1.2-93.5c-0.1-4.9-2.2-7.1-6.9-7.2c-8.2-0.2-47.6-0.9-59.1-1.1c-2.5-0.1-3.8,0.9-5.4,2.7
		c-9.7,10.8-17.4,24.8-22.2,34.3c-12.1,23.8-11.7,42.2,1.3,59.6l4.1,5.5l-6.3-2.8c-10.4-4.6-16.5-12.5-18.2-23.5
		c-2.4-15.3,2.3-28.8,8.2-43.7c6.6-16.5,16.4-31.4,25.9-45.8c2.3-3.5,4.7-7,6.9-10.6l0.1-0.2c8.9-13.7,10-14,24.6-5.8
		c5.2,2.9,8.2,3.7,11.4,0.4c3.1-3.3,1.8-6.2-0.9-10.7c-2.7-4.7-29.8-50.6-40.4-69c-2.9-5.1-6.5-7.2-12.3-7.2
		c-0.2,0-79.1,1.1-82.9,1.2c-3.3,0.1-5.3,1.6-5.9,4.5c-0.7,3.2,0.2,5.6,2.7,7.3c0.7,0.5,1.4,0.9,2.2,1.4c0.7,0.4,1.5,0.9,2.2,1.4
		c1.4,1,3.3,1.8,5.1,2.6c4.1,1.8,8.3,3.7,9.4,7.7c1.2,4.2-1.7,8.2-4.4,12c-1.1,1.5-2.1,2.9-2.9,4.3c-15.7,28.8-16.8,55.4-3.6,81.2
		c12.6,24.5,51.1,78.2,54.4,82.8c1.9,2.6,4.5,4.9,7.1,7c7,5.8,13.7,8.6,21.3,8.9c16.2,0.7,67.4,3.3,76.9,3.8c3.2,0.2,5.6-0.4,7-1.8
		C383.6,517,384.2,515.1,384.2,512.5z M576.3,311.2c-2.9-6-5.7-11.9-8.6-17.9c-1.9-3.8-3.5-5.8-5.3-6.4c-1.7-0.6-4.1,0-7.6,2
		c-26,14.2-52.6,28.8-79.2,43.6c-3.1,1.7-4.8,3.4-5.3,5.2c-0.5,1.8,0.2,4,2,6.9c4.5,7.2,9,14.4,13.5,21.6c6.4,10.1,13,20.6,19.3,31
		c1.8,2.9,3.6,3.8,6.7,3.4c3.3-0.5,19.6-2.1,24.4-3c26.8-4.7,48.5-9.4,54.4-35.5c0.4-2,1.2-8.1,1.2-8.1s3.6,9.6,1.2,16.6
		c-6.3,19-19.1,24.9-36,30.8c-28.7,9.9-58,9.7-85.6,8.6c-4.4-0.2-7.2-1.1-9-3.1c-1.9-2.1-2.5-5.1-2.3-10.1l0.1-1.8
		c0.4-6.5,0.8-14.7-0.5-17.2c-1.2-2.2-3-3.4-5.1-3.4c0,0,0,0-0.1,0c-2.6,0-5.3,1.9-7.1,5c-13.1,22.6-41.2,72.3-42.8,75.1
		c-3,5-4.5,7.5-4.5,9.6c0,2.1,1.5,4.6,4.6,9.5c1.8,2.9,39,66.9,39,66.9c2.8,4.8,4.6,7.2,9.3,6.4c10.3-1.7,4.5-24.7,6-26.2
		c1.5-1.5,3.8-1.7,5.4-1.6c7.5,0.2,14,0.1,20-0.3c23.1-1.4,41.7-13.1,51.7-31.5c6.9-12.7,47.7-80.5,61.2-119.4
		c2-5.7,1.9-10.3-0.8-15.6C589.5,338.8,582.8,324.8,576.3,311.2z"/>
</g>
</svg>
